<?xml version="1.0" standalone="no"?>
<!DOCTYPE svg PUBLIC "-//W3C//DTD SVG 20010904//EN"
 "http://www.w3.org/TR/2001/REC-SVG-20010904/DTD/svg10.dtd">
<svg version="1.0" xmlns="http://www.w3.org/2000/svg"
 width="5000.000000pt" height="5000.000000pt" viewBox="0 0 5000.000000 5000.000000"
 preserveAspectRatio="xMidYMid meet">

<g transform="translate(0.000000,5000.000000) scale(0.100000,-0.100000)"
fill="#000000" stroke="none">
<path d="M19120 45959 c-195 -31 -241 -57 -261 -143 -11 -50 -10 -55 39 -181
96 -250 141 -453 163 -736 8 -104 11 -421 10 -979 -2 -822 2 -951 35 -1160 36
-238 117 -498 200 -649 13 -24 22 -46 19 -49 -2 -3 -57 9 -122 26 -193 51
-466 102 -548 102 -134 0 -225 -51 -275 -154 -59 -121 -63 -249 -15 -573 107
-730 328 -1312 637 -1674 26 -31 48 -59 48 -61 0 -3 -21 -1 -47 3 -27 5 -118
18 -203 29 -85 11 -190 31 -233 45 -43 14 -97 25 -122 25 -60 0 -159 -53 -196
-105 -34 -48 -63 -154 -56 -207 3 -24 1 -38 -6 -38 -6 0 -78 40 -161 89 -714
421 -1577 776 -2276 936 -596 137 -1000 162 -1426 90 -348 -59 -712 -183 -816
-278 -68 -62 -70 -157 -4 -215 l33 -29 194 -6 c274 -8 410 -33 742 -133 883
-267 1771 -717 2612 -1320 313 -225 796 -586 791 -591 -6 -6 -99 -50 -896
-418 -669 -309 -863 -394 -1180 -520 -468 -186 -774 -288 -1104 -370 -317 -78
-386 -106 -474 -189 -100 -94 -143 -196 -143 -337 0 -91 7 -131 46 -239 48
-137 60 -215 58 -385 -2 -229 -37 -482 -99 -715 -32 -122 -130 -441 -239 -785
-129 -405 -197 -690 -244 -1025 -23 -162 -51 -421 -51 -474 l0 -34 -87 -7
c-193 -16 -358 -78 -563 -213 -561 -368 -996 -994 -1307 -1880 -29 -85 -114
-357 -189 -605 -200 -668 -271 -867 -402 -1122 -255 -498 -530 -820 -1032
-1207 -212 -163 -261 -233 -268 -388 -3 -69 0 -96 17 -142 45 -118 139 -196
268 -223 280 -59 467 -143 688 -309 120 -90 356 -319 342 -332 -2 -3 -43 6
-88 20 -270 82 -617 142 -1029 178 -191 16 -842 16 -1020 0 -694 -65 -1268
-217 -1860 -492 -815 -378 -1544 -972 -2149 -1749 -136 -175 -297 -415 -352
-525 -68 -137 -64 -232 11 -300 70 -63 152 -68 227 -14 17 13 78 75 136 138
354 391 927 775 1496 1005 467 188 915 291 1532 354 528 54 1166 53 2004 -5
132 -9 244 -20 248 -24 4 -4 -16 -17 -45 -30 -190 -81 -586 -296 -783 -426
-191 -126 -267 -264 -220 -403 11 -34 62 -112 156 -237 76 -102 139 -189 139
-193 0 -5 -33 -11 -72 -15 -338 -32 -716 -126 -1008 -251 -301 -129 -654 -357
-958 -620 -224 -193 -601 -582 -771 -795 -100 -125 -193 -270 -220 -345 -63
-167 -2 -344 139 -408 51 -23 137 -27 281 -13 88 9 204 2 229 -14 11 -7 -4
-27 -65 -92 -233 -243 -522 -641 -751 -1033 -323 -554 -572 -1200 -704 -1825
-75 -351 -150 -896 -150 -1084 0 -121 0 -124 29 -160 16 -20 32 -50 36 -65 14
-66 94 -90 156 -48 34 23 45 24 225 30 386 12 868 116 1358 293 922 335 1636
679 2233 1078 53 36 100 63 104 61 4 -3 -1 -31 -11 -63 -71 -230 -89 -296 -99
-363 -25 -165 39 -267 199 -317 118 -37 587 -9 985 59 699 118 1458 443 2087
895 65 47 121 84 123 83 1 -2 -7 -50 -20 -106 -33 -144 -49 -272 -41 -315 14
-74 82 -128 160 -128 73 0 399 117 681 244 55 25 102 41 103 36 8 -22 -142
-267 -276 -455 -107 -149 -131 -205 -132 -302 0 -93 27 -166 85 -231 59 -65
123 -94 281 -127 316 -67 589 -171 1014 -388 349 -178 662 -369 988 -604 97
-70 312 -224 477 -343 761 -548 1100 -758 1727 -1068 164 -81 297 -149 298
-153 0 -3 -34 -24 -76 -48 -447 -255 -1000 -747 -1455 -1296 -429 -518 -809
-1164 -1048 -1784 -218 -563 -347 -1127 -392 -1712 -15 -205 -7 -783 15 -974
71 -632 236 -1266 436 -1680 95 -197 169 -269 280 -270 73 0 125 26 161 83 47
74 46 105 -5 302 -246 946 -135 1844 349 2835 227 463 648 1079 1095 1600 451
525 1118 1183 1539 1517 40 33 76 57 78 54 3 -2 -29 -67 -71 -143 -128 -236
-284 -606 -331 -788 -45 -176 8 -321 143 -387 59 -29 75 -33 147 -32 68 1 97
7 195 44 151 55 431 150 446 150 6 0 -32 -87 -86 -192 -235 -466 -362 -899
-416 -1413 -20 -193 -23 -624 -5 -800 55 -550 186 -1017 417 -1492 64 -130 83
-161 141 -221 93 -95 170 -134 278 -140 160 -8 240 48 391 274 97 145 119 172
131 161 3 -4 16 -71 29 -149 113 -683 397 -1319 859 -1928 399 -525 891 -993
1750 -1665 77 -60 181 -148 231 -195 49 -48 110 -96 135 -108 64 -31 135 -30
185 4 56 38 66 52 159 237 90 177 114 218 368 632 235 382 323 539 477 850
175 352 271 577 359 842 147 440 221 824 237 1226 8 188 -5 357 -41 532 -20
101 -73 284 -100 348 -11 26 3 22 164 -39 178 -69 468 -167 573 -194 196 -51
320 -8 387 133 72 151 124 594 138 1162 8 352 -19 691 -81 1010 -13 66 -23
121 -21 123 2 2 43 -23 92 -55 141 -95 244 -151 297 -163 95 -21 196 33 247
132 45 88 200 830 258 1238 96 669 106 1310 26 1725 -8 44 -15 85 -15 91 0 7
74 13 228 17 773 22 1541 185 2222 472 692 292 1498 862 2283 1615 77 73 142
128 147 124 28 -29 454 -1145 553 -1449 341 -1043 539 -2301 554 -3518 10
-833 -57 -1425 -251 -2227 -30 -124 -32 -173 -8 -219 58 -115 238 -108 295 12
46 97 405 1339 521 1802 330 1322 518 3037 400 3658 -8 43 -13 84 -11 90 2 6
30 -23 62 -64 79 -100 208 -226 284 -276 213 -143 433 -115 552 70 47 72 67
135 114 352 20 93 40 176 45 184 6 11 23 -16 60 -90 169 -337 454 -701 909
-1163 280 -284 347 -339 861 -698 151 -105 314 -212 363 -237 80 -41 94 -45
160 -45 123 -1 196 57 236 189 53 170 162 971 172 1258 2 32 6 60 9 62 4 3 36
-17 71 -44 501 -378 1178 -676 1841 -810 352 -72 623 -94 1073 -89 311 3 321
4 367 26 65 32 114 90 132 154 7 29 21 145 31 258 9 113 32 336 52 495 57 475
57 894 2 1315 -80 610 -262 1243 -521 1815 -85 188 -149 291 -277 445 -16 19
-31 44 -33 55 -3 19 4 20 192 26 276 9 553 50 638 93 124 63 161 179 111 342
-21 68 -229 493 -362 739 -275 510 -669 1029 -1105 1458 -88 86 -165 157 -171
157 -31 0 -3 32 58 68 86 52 464 303 555 371 110 80 154 162 143 268 -12 118
-70 187 -381 456 -116 100 -230 200 -255 223 l-44 41 20 296 c11 163 22 299
25 302 3 4 55 -6 114 -20 805 -194 1205 -205 1853 -50 102 24 265 61 361 81
256 54 330 95 392 222 30 60 33 75 32 152 0 62 -6 100 -22 140 -29 73 -199
365 -324 557 -55 84 -98 158 -96 164 2 6 90 42 196 79 762 271 1296 551 1897
995 272 200 475 342 654 458 203 130 264 182 308 261 24 44 28 62 28 131 0 68
-5 88 -29 134 -56 107 -111 149 -526 398 -484 290 -652 387 -912 525 -727 386
-1326 588 -1968 664 -159 19 -546 25 -732 11 -63 -4 -108 -4 -108 1 0 12 185
175 311 274 53 42 109 91 124 110 80 95 101 234 52 342 -66 144 -211 231 -459
276 -194 35 -402 52 -628 53 -445 1 -838 -74 -1228 -231 -28 -12 -52 -18 -52
-13 0 5 166 175 368 377 629 631 1087 1051 1472 1350 861 668 1705 1025 2585
1094 158 13 208 29 248 82 78 102 35 258 -87 314 -92 41 -465 110 -767 141
-200 20 -677 23 -854 4 -378 -39 -709 -110 -1070 -228 -811 -265 -1555 -700
-2224 -1299 -138 -123 -312 -298 -389 -389 -30 -36 -45 -46 -50 -37 -12 18
-32 581 -32 875 0 487 44 843 129 1054 51 127 152 298 249 420 23 29 102 103
174 166 169 145 193 182 193 307 0 70 -4 94 -25 135 -41 85 -104 136 -232 190
-640 268 -1103 656 -1566 1316 -45 64 -82 121 -82 127 0 6 19 16 43 23 109 29
274 87 399 140 216 92 753 366 985 503 160 94 197 231 93 349 -21 23 -70 62
-109 87 -39 25 -71 48 -71 53 0 4 8 10 18 13 74 26 319 127 417 173 214 102
486 268 678 415 104 79 543 441 641 528 98 88 126 161 92 241 -25 60 -240 243
-730 620 l-29 23 64 59 c339 317 515 597 1071 1699 230 457 445 779 703 1056
59 63 133 148 166 188 111 138 104 188 -46 330 -113 107 -141 122 -470 242
-137 51 -459 172 -715 270 -256 98 -536 201 -623 229 -175 57 -464 130 -632
161 -681 125 -1412 76 -1915 -129 -41 -17 -79 -31 -84 -31 -10 0 -12 -7 49
185 138 441 147 541 59 628 -52 52 -81 62 -179 61 -193 -1 -724 -107 -1125
-225 -589 -172 -1239 -525 -1715 -933 -117 -100 -368 -350 -453 -449 -44 -52
-68 -74 -73 -65 -8 16 -68 259 -110 444 -40 179 -61 234 -112 287 -130 133
-300 72 -677 -242 -140 -116 -387 -356 -523 -509 -55 -62 -102 -110 -104 -108
-8 8 144 686 213 946 144 544 269 959 422 1395 239 681 536 1365 762 1755 226
389 558 813 770 983 119 96 161 139 186 192 56 119 5 252 -116 303 -57 24
-162 12 -240 -28 -156 -78 -583 -401 -915 -691 -165 -144 -557 -534 -706 -704
-481 -545 -878 -1133 -1235 -1830 -353 -691 -568 -1287 -658 -1827 -34 -201
-46 -320 -51 -508 -3 -103 -8 -155 -15 -155 -6 0 -38 34 -71 75 -230 286 -382
618 -469 1026 -33 154 -68 238 -128 304 -84 95 -223 131 -367 95 -78 -20 -112
-35 -335 -152 -158 -83 -317 -158 -470 -220 -371 -151 -1047 -340 -1732 -484
-179 -37 -1988 -369 -2014 -369 -8 0 -8 15 2 58 42 173 56 412 33 582 -5 41
-12 183 -15 315 -5 236 -5 241 -32 294 -85 170 -358 188 -675 43 -47 -21 -81
-32 -87 -26 -5 5 -3 45 7 99 12 69 14 131 10 270 -11 368 -84 666 -242 990
-82 168 -165 293 -395 601 -221 294 -270 350 -342 389 -46 26 -63 30 -128 30
-81 0 -125 -17 -191 -72 -39 -33 -232 -257 -344 -400 -70 -90 -105 -121 -105
-95 0 4 -41 82 -91 173 -579 1043 -1485 1820 -2530 2170 -207 69 -381 113
-531 134 -117 16 -357 18 -448 4z m407 -570 c857 -296 1587 -758 2240 -1420
283 -287 460 -523 612 -817 69 -132 118 -188 199 -224 91 -41 140 -9 294 194
140 185 223 273 327 346 100 70 119 69 206 -4 238 -202 472 -563 585 -904 105
-313 154 -706 131 -1035 -8 -117 -16 -158 -46 -247 -38 -115 -41 -141 -24
-185 31 -82 95 -94 239 -42 384 137 668 224 685 209 30 -25 65 -224 65 -369 0
-129 -18 -238 -70 -417 -22 -75 -41 -138 -42 -139 -9 -7 -268 -66 -276 -64 -4
2 15 94 45 203 29 110 50 202 47 205 -2 3 -59 -52 -125 -122 -202 -213 -304
-292 -304 -235 0 9 39 65 86 125 47 59 121 158 164 218 43 61 102 142 132 181
29 39 53 73 53 77 0 13 -217 7 -311 -9 -114 -19 -293 -77 -411 -133 -75 -36
-101 -56 -200 -154 -102 -102 -257 -231 -266 -222 -2 2 5 52 16 112 54 289 72
469 79 790 9 396 -17 675 -92 1029 -40 183 -140 535 -144 504 -45 -331 -165
-847 -246 -1056 -59 -152 -84 -199 -98 -185 -8 8 -2 58 21 183 110 590 131
982 71 1286 -6 28 -14 52 -19 52 -24 0 -325 -539 -537 -959 -139 -278 -163
-319 -162 -285 0 21 4 120 8 219 6 130 5 192 -3 225 -12 47 -118 209 -283 434
-87 118 -113 144 -113 111 0 -29 -91 -298 -137 -402 -44 -100 -67 -131 -58
-75 3 15 10 56 16 92 13 78 24 527 15 603 -7 50 -15 64 -124 199 -204 254
-430 506 -667 743 -300 301 -502 472 -781 660 -71 48 -158 116 -194 151 -36
35 -69 64 -73 64 -21 0 7 -65 147 -346 169 -339 244 -506 340 -761 179 -474
332 -1011 457 -1598 43 -203 130 -677 125 -682 -2 -3 -35 14 -73 37 -157 96
-537 257 -945 401 -40 14 -52 10 -43 -12 6 -15 59 -48 451 -284 138 -83 278
-172 311 -198 54 -41 300 -292 351 -357 20 -26 21 -29 67 -382 49 -375 99
-896 125 -1303 16 -247 29 -500 26 -503 -2 -1 -29 10 -62 24 -98 43 -408 158
-589 217 -325 107 -830 242 -877 235 -44 -6 -26 -26 59 -63 312 -138 973 -470
981 -493 2 -6 -43 -12 -115 -16 -524 -29 -974 -108 -1448 -253 -230 -71 -203
-77 -274 66 -34 66 -88 185 -122 263 -65 152 -194 525 -205 594 l-6 41 68 14
c147 28 363 12 616 -46 59 -14 109 -25 112 -25 14 0 4 46 -12 56 -10 7 -24 31
-31 55 -7 24 -34 80 -60 124 -261 440 -394 761 -475 1150 -45 218 -58 346 -63
636 -5 271 -5 277 15 283 65 21 265 38 492 42 193 4 258 8 269 18 19 20 16 65
-18 221 -85 396 -91 471 -101 1270 -10 786 -27 1058 -90 1490 -30 202 -102
530 -136 618 -10 26 10 22 203 -44z m14077 -880 c-593 -1135 -1287 -3121
-1723 -4933 -33 -137 -62 -250 -64 -253 -2 -2 -33 16 -68 39 l-64 43 1 280 c1
303 12 401 86 770 80 401 249 987 421 1456 25 68 32 100 25 112 -5 9 -13 17
-17 17 -10 0 -122 -201 -209 -375 -173 -347 -412 -958 -623 -1589 -93 -277
-115 -336 -130 -336 -10 0 -26 11 -34 24 -15 22 -12 40 40 272 68 299 132 563
180 739 203 740 615 1668 1073 2415 335 546 631 930 1030 1332 85 87 157 157
158 155 2 -2 -35 -77 -82 -168z m-12747 -929 c498 -840 872 -1848 1148 -3094
104 -469 155 -885 155 -1266 0 -85 5 -191 11 -235 l11 -80 -59 -103 c-72 -125
-89 -146 -111 -137 -9 3 -60 18 -112 32 -52 14 -105 29 -116 33 -21 8 -22 15
-27 277 -5 270 -16 393 -82 914 -98 782 -241 1572 -410 2265 -123 506 -266
947 -454 1407 -34 82 -61 151 -61 155 0 10 20 -22 107 -168z m16085 -2315 c-4
-124 -28 -260 -68 -388 -19 -60 -34 -120 -34 -133 0 -30 26 -94 37 -94 5 0 69
18 143 40 689 208 1357 251 2053 135 342 -58 815 -179 1511 -388 97 -29 82
-37 -74 -37 -99 0 -116 3 -288 55 -406 122 -720 188 -1123 236 -226 27 -693
37 -916 20 -433 -34 -832 -114 -1146 -231 -189 -71 -211 -86 -312 -213 -110
-137 -253 -344 -337 -484 -34 -58 -64 -100 -66 -94 -9 26 130 397 219 586 l42
90 -13 85 c-31 216 -23 380 27 548 14 48 28 96 31 106 5 18 0 17 -44 -8 -240
-138 -568 -394 -812 -636 -92 -90 -137 -129 -144 -122 -30 30 183 312 411 545
96 97 169 177 164 177 -53 0 -533 -229 -758 -361 -353 -207 -935 -621 -1245
-885 -122 -104 -413 -391 -494 -487 l-49 -58 -8 -112 c-4 -72 -21 -172 -47
-282 -22 -93 -46 -198 -53 -233 -6 -34 -15 -65 -20 -67 -22 -14 -88 432 -129
865 -19 199 -62 524 -76 573 -3 9 -9 17 -12 17 -4 0 -46 -80 -92 -177 -97
-202 -211 -409 -237 -429 -29 -22 -43 -16 -43 17 0 48 46 266 74 347 13 40 20
72 16 72 -4 0 -47 -42 -96 -92 -203 -214 -393 -484 -521 -742 -26 -53 -54 -96
-61 -96 -25 0 -172 121 -172 142 0 41 216 361 392 580 228 285 479 531 752
738 129 97 109 106 201 -85 102 -212 145 -364 154 -545 6 -113 6 -115 34 -128
43 -21 77 6 181 139 437 558 879 929 1446 1212 320 160 583 252 905 316 83 16
193 35 245 40 52 6 109 13 125 15 17 2 98 3 180 2 l150 -1 -3 -90z m-7087
-530 c132 -403 316 -755 548 -1045 83 -104 474 -491 637 -630 207 -177 313
-260 631 -496 542 -400 751 -575 1049 -873 384 -385 627 -729 812 -1151 328
-744 361 -1579 102 -2535 -49 -181 -135 -458 -145 -469 -15 -16 -507 273 -784
461 l-100 68 -6 150 c-4 84 -14 183 -24 225 -78 336 -192 678 -326 972 -23 51
-194 396 -380 766 -186 370 -356 721 -379 780 -23 59 -57 170 -77 247 -42 172
-80 253 -148 321 -59 59 -92 78 -236 132 -106 40 -167 67 -484 212 -218 100
-668 296 -860 375 -77 32 -145 62 -151 66 -13 11 -9 77 13 212 12 71 13 101 5
109 -12 12 -19 6 -180 -139 -51 -46 -95 -83 -99 -83 -5 0 -43 12 -85 26 -52
17 -79 31 -83 44 -8 25 37 243 80 384 40 131 43 156 18 156 -32 0 -200 -194
-304 -351 -35 -52 -68 -97 -73 -101 -18 -12 -61 -9 -81 6 -18 13 -19 18 -7 61
71 267 354 782 684 1247 86 122 82 141 -19 78 -303 -192 -696 -564 -992 -940
-89 -113 -191 -261 -191 -277 0 -6 -7 -17 -16 -24 -15 -12 -15 -6 -9 66 20
228 28 249 189 483 160 232 267 363 436 533 170 172 278 262 452 376 70 46
132 93 138 104 14 25 4 56 -23 74 -20 13 -38 10 -177 -26 -223 -57 -339 -82
-565 -124 -644 -118 -963 -236 -1985 -730 -564 -273 -866 -407 -1300 -580
-107 -42 -199 -80 -204 -83 -5 -3 -6 0 -2 6 15 25 619 417 1034 671 37 22 42
30 40 56 -4 45 -36 57 -138 49 -306 -22 -963 -165 -1385 -301 -652 -211 -1303
-558 -1824 -975 -81 -64 -85 -66 -110 -53 -50 27 -255 180 -255 190 1 6 75 55
165 110 162 100 197 123 500 326 292 197 581 345 909 467 501 185 1015 319
1615 422 1192 203 1896 348 2575 529 630 168 986 295 1360 486 80 40 151 73
159 72 8 -1 30 -53 56 -132z m-15055 -515 c210 -16 541 -73 848 -146 864 -205
1854 -636 2644 -1150 162 -106 205 -146 280 -257 33 -49 95 -131 139 -182 43
-52 79 -96 79 -99 0 -14 -51 -4 -81 17 -33 22 -330 187 -574 320 -268 145
-509 256 -523 242 -9 -9 -2 -15 447 -390 203 -170 370 -315 370 -321 1 -10
-101 -54 -124 -54 -4 0 -53 44 -109 99 -185 180 -382 330 -756 577 -890 585
-1851 1013 -2877 1280 -98 25 -182 49 -188 53 -28 18 239 25 425 11z m25050
-68 c0 -4 -87 -24 -192 -46 -106 -21 -350 -78 -543 -126 -1330 -334 -2387
-787 -3396 -1456 -548 -364 -1044 -770 -1522 -1248 -86 -86 -159 -156 -164
-156 -11 0 -173 275 -173 293 0 22 397 385 605 553 495 399 1254 863 1956
1195 1076 508 2155 830 3294 983 126 17 135 18 135 8z m1259 -103 c-258 -280
-453 -560 -676 -974 -101 -187 -233 -435 -468 -880 -168 -318 -269 -470 -405
-606 -58 -58 -141 -130 -185 -159 -106 -70 -153 -115 -181 -175 -29 -60 -30
-116 -4 -173 28 -61 58 -84 194 -151 80 -40 150 -84 207 -130 102 -83 299
-286 299 -308 0 -15 -53 -67 -225 -219 -296 -262 -506 -392 -781 -484 -163
-54 -306 -76 -579 -90 -253 -12 -314 -24 -382 -73 -58 -41 -98 -122 -97 -197
0 -94 44 -155 174 -240 71 -47 293 -265 287 -283 -4 -13 -249 -103 -430 -157
-243 -73 -300 -81 -602 -86 -148 -3 -275 -1 -281 3 -6 4 -57 80 -114 168 -425
663 -800 1100 -1231 1436 -19 15 -32 29 -29 32 8 7 360 -28 580 -57 274 -37
564 -86 928 -157 233 -46 316 -59 325 -50 17 17 5 24 -133 84 -365 159 -710
271 -1263 412 -573 145 -1377 294 -1626 301 -62 2 -115 5 -118 8 -3 3 21 42
52 88 358 514 898 1032 1548 1482 108 75 100 74 217 41 30 -9 138 -22 240 -30
342 -25 954 -168 1375 -321 301 -109 739 -291 1070 -444 217 -100 249 -111
258 -86 12 31 -150 137 -370 242 -602 287 -1237 519 -2098 769 -143 41 -269
79 -279 83 -20 9 11 30 214 149 1284 751 2751 1215 4120 1303 240 15 261 16
414 18 l138 2 -83 -91z m-19999 -1929 c279 -16 510 -57 719 -127 249 -83 431
-196 642 -401 166 -160 260 -268 497 -567 96 -121 182 -228 190 -238 8 -9 13
-20 10 -23 -3 -3 -68 -17 -144 -31 l-138 -26 -86 90 c-537 566 -1219 935
-1950 1057 -203 34 -260 31 -260 -14 0 -16 17 -29 73 -54 39 -19 106 -49 148
-69 88 -40 238 -138 424 -277 154 -116 387 -310 393 -328 2 -7 -36 14 -85 47
-107 72 -250 149 -358 192 -239 95 -639 172 -1040 199 -578 38 -989 -32 -1550
-265 -361 -150 -651 -289 -854 -410 -151 -89 -169 -108 -138 -147 8 -12 47
-22 131 -33 235 -32 486 -113 726 -233 145 -73 347 -195 331 -200 -5 -2 -56 4
-113 12 -369 55 -848 46 -1273 -25 -515 -85 -1238 -295 -1650 -479 -27 -13
-75 -30 -105 -40 -43 -14 -56 -23 -58 -40 -2 -12 0 -26 5 -31 4 -4 98 -19 208
-34 835 -108 1348 -239 1985 -507 222 -94 599 -280 578 -285 -10 -2 -104 20
-210 51 -470 134 -998 253 -1548 350 -276 49 -440 67 -555 64 -91 -3 -100 -5
-100 -22 0 -16 32 -28 225 -81 768 -211 1355 -427 1905 -702 283 -142 557
-302 518 -303 -7 0 -86 22 -175 49 -261 79 -686 195 -965 265 -284 71 -629
143 -639 133 -16 -15 9 -35 77 -62 405 -157 962 -457 1219 -658 91 -71 210
-179 222 -201 19 -36 -7 -39 -69 -8 -65 33 -359 129 -573 187 -74 20 -140 38
-147 40 -6 2 -19 -2 -28 -9 -15 -11 -5 -22 93 -94 171 -125 502 -428 502 -459
0 -27 -29 -24 -73 6 -57 39 -96 54 -242 90 -66 16 -139 37 -162 45 -27 9 -45
11 -49 5 -3 -5 20 -41 51 -80 31 -38 82 -109 114 -157 32 -48 79 -111 106
-140 27 -30 45 -58 42 -67 -3 -7 -52 -82 -107 -166 -508 -759 -861 -1549
-1000 -2243 -63 -314 -74 -436 -75 -821 0 -227 5 -387 13 -455 20 -160 59
-381 93 -523 18 -75 28 -132 22 -138 -9 -9 -252 129 -403 230 -189 128 -448
336 -771 623 -63 56 -99 72 -99 46 0 -15 277 -332 504 -578 252 -272 718 -706
874 -815 74 -51 91 -69 114 -115 96 -195 186 -385 183 -388 -4 -5 -201 95
-383 195 -574 313 -1059 663 -1418 1021 -365 364 -649 778 -857 1247 -86 194
-231 596 -322 896 -171 559 -258 1122 -259 1674 -1 519 47 834 225 1466 133
474 152 544 234 879 135 551 219 852 247 887 5 6 44 19 86 28 342 75 1011 311
1645 581 185 79 563 249 887 399 151 70 397 183 545 252 479 221 866 378 1289
522 639 217 1092 316 1565 340 80 5 157 9 171 9 14 1 104 -3 200 -8z m6565
-65 c94 -8 204 -19 245 -25 664 -94 1120 -246 2240 -750 173 -78 323 -144 333
-147 31 -10 14 -24 -78 -62 -134 -56 -221 -102 -326 -172 -162 -108 -255 -216
-205 -235 8 -3 40 8 72 24 33 16 112 50 176 76 237 95 409 134 619 143 l147 6
60 -90 c307 -457 662 -1134 833 -1590 88 -235 203 -683 186 -727 -5 -12 -88
39 -374 230 -202 136 -384 259 -404 275 -70 55 -71 39 -9 -151 86 -264 243
-520 531 -865 108 -129 331 -358 434 -445 159 -134 414 -302 758 -499 70 -41
127 -77 127 -81 0 -4 -35 -20 -77 -35 -185 -65 -525 -239 -532 -270 -4 -21 -3
-21 224 16 123 20 178 23 450 23 171 1 322 -2 336 -6 24 -7 33 -26 87 -175
375 -1046 473 -1755 356 -2572 -111 -780 -421 -1627 -822 -2246 -179 -277
-347 -472 -888 -1031 l-243 -250 -163 -103 c-134 -85 -279 -183 -551 -371 -28
-20 -29 -22 111 174 461 641 908 1429 1162 2046 87 211 87 210 61 210 -14 0
-52 -49 -146 -192 -287 -436 -569 -809 -916 -1213 -165 -193 -406 -458 -422
-464 -5 -2 4 21 20 50 75 132 320 610 451 879 293 600 625 1371 609 1414 -14
35 -36 8 -116 -142 -304 -569 -710 -1228 -1101 -1787 -130 -186 -323 -445
-328 -440 -2 2 38 92 88 202 245 529 523 1190 537 1280 5 28 3 33 -14 33 -31
0 -155 -176 -585 -830 -394 -599 -509 -772 -514 -768 -2 3 35 94 82 204 132
306 305 721 425 1024 61 151 119 297 130 323 11 27 18 55 15 63 -11 30 -33 11
-71 -58 -498 -934 -885 -1619 -1197 -2118 -159 -253 -492 -752 -496 -741 -4
13 133 346 232 563 144 317 331 677 711 1368 357 648 667 1327 809 1769 52
162 59 204 35 209 -11 2 -29 -25 -63 -100 -52 -114 -219 -412 -396 -708 -278
-465 -390 -637 -720 -1110 -401 -575 -580 -853 -803 -1251 -260 -466 -504
-976 -665 -1389 -68 -176 -85 -312 -56 -443 6 -27 3 -29 -139 -97 -80 -39
-150 -70 -156 -70 -22 0 -19 23 18 161 144 531 344 1041 637 1629 217 434 323
621 784 1390 668 1112 985 1661 1144 1978 424 848 663 1664 726 2487 14 183
14 699 0 895 -73 1016 -411 1911 -1010 2681 -154 197 -270 326 -456 510 -278
272 -547 479 -894 684 -291 172 -804 397 -985 431 -19 3 -35 9 -35 13 0 4 44
21 98 36 53 16 144 45 202 65 174 58 137 77 -155 79 -165 1 -321 -11 -499 -40
-113 -18 -139 -19 -209 -9 -131 19 -133 22 -36 59 46 18 165 59 264 92 181 60
214 77 200 100 -6 9 -55 11 -219 5 -359 -11 -648 -43 -976 -110 -91 -18 -167
-32 -169 -30 -18 15 41 42 250 112 407 135 717 214 957 243 85 10 102 15 100
28 -3 14 -38 16 -318 16 -338 0 -445 -8 -785 -56 -241 -35 -413 -65 -640 -115
-168 -36 -483 -116 -530 -134 -15 -6 -30 -8 -32 -6 -3 3 39 26 94 51 737 350
1405 505 2178 505 226 0 301 -4 558 -26 74 -6 77 -6 77 14 0 17 -11 25 -52 37
-372 107 -1145 138 -1738 70 -531 -62 -1014 -190 -1583 -419 -450 -182 -554
-235 -671 -338 -45 -39 -53 -42 -163 -60 -64 -10 -121 -17 -126 -15 -20 6 303
249 521 391 245 159 368 222 857 433 469 203 1069 336 1725 382 194 14 594 12
775 -4z m-2040 -1685 c802 -42 1562 -194 2185 -437 1203 -470 2148 -1545 2465
-2804 94 -376 129 -698 129 -1194 0 -349 -4 -437 -40 -755 -33 -293 -95 -614
-79 -410 36 467 17 1037 -50 1467 -139 889 -436 1530 -984 2131 -177 194 -400
364 -425 324 -2 -4 36 -66 85 -137 175 -252 383 -611 494 -852 147 -321 257
-694 329 -1113 28 -165 69 -518 64 -558 -2 -15 -26 67 -56 188 -128 514 -332
1020 -604 1503 -35 62 -55 87 -69 87 -10 0 -19 -3 -19 -6 0 -4 29 -85 65 -181
225 -600 335 -1169 361 -1865 5 -151 -1 -337 -11 -326 -2 2 -20 75 -40 163
-116 499 -325 1082 -555 1550 -151 306 -299 541 -497 791 -99 124 -401 430
-513 521 -172 139 -290 214 -290 187 0 -4 35 -50 78 -103 254 -312 459 -626
637 -976 123 -241 284 -619 271 -633 -3 -3 -10 7 -15 21 -222 582 -679 1076
-1281 1381 -103 53 -312 146 -326 146 -13 0 -1 -37 15 -47 45 -28 274 -225
370 -318 162 -156 392 -417 380 -430 -3 -2 -56 22 -119 54 -142 73 -261 114
-410 141 -63 12 -126 25 -140 29 -20 5 -43 39 -108 156 -182 329 -353 595
-562 874 -304 406 -611 687 -1015 931 -300 180 -402 223 -535 223 -96 0 -147
-16 -216 -64 -84 -61 -129 -159 -122 -269 3 -55 11 -83 43 -146 34 -67 40 -87
38 -136 -5 -180 -91 -403 -231 -597 -124 -175 -452 -492 -491 -475 -234 102
-569 175 -903 196 -209 14 -194 7 -173 76 11 35 -26 28 -71 -14 l-39 -36 -150
7 c-82 3 -151 8 -153 9 -1 2 6 37 17 77 25 96 34 176 21 184 -21 13 -164 -90
-285 -206 -70 -67 -105 -92 -105 -75 0 2 16 48 36 102 40 113 61 203 66 289 2
50 0 60 -14 63 -37 7 -304 -174 -446 -303 -35 -32 -65 -55 -68 -53 -2 3 7 40
21 84 42 129 105 366 107 404 2 26 -1 35 -12 35 -9 0 -64 -52 -124 -117 -60
-64 -161 -164 -225 -222 -65 -58 -145 -135 -180 -171 -35 -36 -65 -64 -68 -62
-2 3 11 56 31 119 43 144 82 316 101 450 17 122 18 138 5 138 -5 0 -71 -93
-147 -207 -221 -333 -437 -624 -614 -829 -130 -150 -360 -366 -337 -316 2 4
56 113 120 242 131 265 194 417 274 657 101 304 154 550 154 704 0 66 -12 102
-28 84 -5 -6 -44 -91 -88 -190 -148 -339 -344 -719 -516 -998 -44 -73 -160
-253 -258 -402 -97 -148 -223 -344 -281 -435 -112 -177 -114 -179 -326 -378
-479 -448 -828 -975 -1018 -1538 -87 -256 -161 -611 -200 -954 -22 -194 -31
-591 -16 -671 22 -110 72 -184 146 -214 11 -5 77 -11 146 -14 123 -6 127 -7
214 -50 75 -37 105 -60 195 -150 58 -58 126 -137 152 -176 136 -206 362 -593
373 -636 3 -13 1 -31 -4 -39 -8 -12 -14 -11 -37 10 -42 40 -331 381 -474 560
-129 161 -169 199 -157 148 3 -12 46 -122 97 -243 127 -305 360 -882 360 -892
0 -10 -257 377 -452 682 -78 121 -166 258 -195 304 -101 157 -81 83 78 -290
323 -758 477 -1141 449 -1124 -32 20 -393 587 -530 833 -41 72 -80 132 -87
132 -7 0 -13 -2 -13 -5 0 -8 110 -327 169 -493 123 -339 288 -749 436 -1082
48 -107 96 -215 106 -240 l19 -45 -34 38 c-84 94 -307 425 -470 697 -129 215
-373 695 -481 945 -38 88 -72 164 -76 169 -4 5 -14 6 -23 3 -17 -7 -3 -66 76
-321 132 -432 468 -1184 797 -1785 61 -112 108 -207 104 -211 -8 -7 -360 129
-430 166 -35 18 -176 212 -305 419 -425 680 -670 1358 -750 2075 -19 174 -16
622 6 800 67 558 251 1106 573 1714 144 271 301 525 563 911 280 413 817 1223
921 1390 296 472 535 938 691 1345 57 149 150 425 193 579 21 72 43 131 49
131 6 0 70 -13 141 -29 149 -34 339 -65 505 -83 176 -20 718 -16 905 5 255 30
854 106 1200 152 524 70 998 113 1455 134 270 12 866 12 1085 1z m8994 -336
c295 -138 395 -190 481 -247 177 -118 299 -224 473 -412 299 -322 506 -611
982 -1370 434 -693 629 -950 981 -1295 304 -297 642 -536 914 -645 52 -21 99
-42 104 -47 6 -5 1 -20 -12 -37 -67 -91 -188 -312 -247 -451 -196 -463 -265
-966 -310 -2255 -33 -965 -63 -1369 -135 -1792 -98 -571 -314 -1120 -623
-1583 -252 -376 -629 -777 -1012 -1077 -575 -449 -1268 -764 -2010 -912 -247
-50 -682 -96 -714 -77 -8 5 -6 18 5 44 9 20 36 91 61 157 25 66 49 124 53 129
5 5 45 1 94 -9 163 -34 355 -6 549 82 280 127 687 416 1067 760 169 152 233
223 228 251 -8 38 -76 18 -463 -136 -409 -162 -585 -224 -765 -270 -152 -38
-477 -98 -487 -89 -8 9 10 61 88 257 100 253 186 423 285 565 132 188 295 303
501 351 86 20 255 20 349 1 39 -9 125 -36 190 -62 137 -53 184 -62 251 -46
176 43 260 249 172 423 -63 126 -166 233 -369 387 -299 225 -618 366 -960 425
-362 62 -781 35 -1155 -74 -38 -11 -74 -20 -78 -20 -5 0 32 44 81 98 671 727
1231 2001 1357 3085 18 159 35 531 28 600 -10 84 -4 91 115 151 317 159 658
273 962 321 71 12 111 23 124 36 11 10 16 22 12 26 -13 13 -322 15 -496 3
-189 -13 -422 -40 -594 -70 -65 -11 -125 -20 -134 -20 -39 2 260 133 455 201
592 206 1170 284 2426 328 224 7 258 14 227 45 -32 31 -463 142 -720 185 -602
102 -1375 105 -2030 10 -74 -10 -151 -21 -170 -24 -35 -5 -35 -5 10 16 79 37
277 108 399 143 371 108 741 150 1336 151 l380 0 112 -37 c238 -79 393 -86
393 -17 0 35 -141 85 -360 129 -179 36 -174 34 -405 138 -449 201 -725 287
-989 308 -48 4 -82 10 -75 14 18 10 205 45 334 64 290 42 587 45 763 7 52 -11
100 -17 108 -14 29 11 27 52 -5 116 -43 86 -372 510 -556 716 -186 210 -553
531 -872 765 -135 98 -126 104 61 39 173 -60 358 -164 529 -297 58 -45 107
-60 107 -32 0 59 -400 505 -711 792 -317 293 -683 589 -766 619 -26 10 -53 23
-59 29 -6 6 -16 61 -23 121 -10 92 -42 280 -67 398 -4 18 -2 27 6 27 7 0 105
-43 219 -96z m-9582 -777 c92 -45 220 -107 283 -136 281 -132 479 -282 737
-561 390 -420 671 -863 885 -1393 105 -260 200 -590 233 -807 35 -225 30 -662
-11 -1020 -27 -233 -89 -580 -103 -580 -5 0 -24 33 -42 73 l-34 72 -2 355 c-3
689 -58 1237 -160 1620 -172 648 -560 1221 -1004 1483 -85 50 -119 64 -119 47
0 -6 37 -52 83 -103 176 -196 286 -353 397 -572 81 -158 210 -483 210 -528 0
-6 -25 30 -56 79 -155 248 -343 442 -543 562 -106 63 -139 54 -54 -15 168
-137 370 -448 477 -736 40 -107 100 -309 111 -372 6 -37 4 -34 -39 39 -98 169
-262 353 -416 468 -129 96 -290 180 -290 152 0 -3 30 -42 66 -87 92 -115 170
-235 231 -357 58 -115 116 -260 108 -268 -3 -3 -6 -3 -8 -1 -2 2 -29 38 -59
79 -89 119 -205 221 -353 307 -155 91 -305 112 -305 43 0 -5 54 -70 120 -146
116 -132 137 -163 105 -150 -101 38 -347 76 -540 83 -394 14 -777 -59 -1207
-228 -136 -54 -387 -177 -502 -247 -37 -23 -73 -42 -78 -42 -20 0 20 193 79
374 35 108 74 202 136 323 26 52 29 65 18 75 -10 11 -31 -6 -113 -92 -163
-171 -248 -281 -344 -447 -108 -186 -164 -359 -150 -460 l6 -45 -123 -121
c-67 -67 -151 -159 -186 -205 -46 -58 -68 -79 -75 -72 -19 18 -20 320 -2 455
57 435 273 871 603 1215 159 167 522 481 926 804 273 218 504 451 651 654 68
94 180 294 226 405 24 59 48 107 52 107 4 0 83 -37 175 -83z m-1527 -1121 c0
-3 -96 -78 -212 -167 -294 -224 -471 -374 -624 -530 -332 -340 -568 -764 -674
-1214 -48 -204 -54 -258 -54 -473 0 -111 -1 -200 -3 -198 -10 9 -45 152 -65
265 -21 114 -23 156 -23 431 1 229 5 336 18 429 9 69 14 127 11 130 -14 14
-57 -63 -88 -159 -167 -516 -179 -1205 -32 -1831 22 -93 23 -102 7 -82 -26 32
-143 300 -189 435 -96 276 -178 640 -207 916 -5 41 -11 62 -20 62 -32 0 -32
-442 0 -740 53 -491 173 -982 329 -1340 25 -58 46 -110 46 -117 0 -47 -71 39
-218 263 -169 257 -301 550 -366 809 -46 186 -84 482 -93 723 -3 105 -9 192
-13 192 -29 0 -52 -136 -71 -415 -34 -523 86 -1174 326 -1773 21 -51 35 -95
32 -98 -9 -9 -121 188 -220 386 -188 374 -316 754 -369 1085 -16 106 -21 194
-25 473 -5 321 -6 342 -23 342 -36 0 -114 -247 -147 -467 -23 -153 -25 -679
-4 -851 7 -62 11 -115 7 -119 -8 -8 -103 195 -150 321 -52 138 -103 326 -133
496 -24 129 -26 171 -27 385 0 257 9 337 60 540 220 869 1051 1539 2204 1780
193 40 516 78 930 108 25 2 53 4 63 5 9 1 17 0 17 -2z m-3217 -718 c-4 -7 -42
-65 -85 -128 -351 -527 -484 -1137 -402 -1840 127 -1092 788 -2165 1814 -2944
316 -240 449 -320 1185 -716 1300 -700 1394 -753 1800 -1023 316 -211 550
-389 815 -621 149 -131 387 -362 379 -370 -3 -3 -50 11 -105 30 -506 182 -951
253 -1584 254 -346 0 -719 27 -978 71 -465 78 -850 270 -1267 632 -146 127
-321 293 -315 300 5 4 190 -9 256 -19 20 -3 56 -26 96 -62 91 -80 368 -226
758 -399 271 -121 550 -205 682 -207 117 -2 106 15 -67 105 -177 92 -365 202
-491 285 -103 69 -393 302 -439 354 l-20 22 30 21 c52 36 132 123 137 148 19
102 -55 123 -487 139 -391 14 -551 53 -870 212 -543 271 -1065 706 -1606 1338
-134 157 -229 273 -431 530 -215 273 -395 440 -623 576 -52 31 -95 60 -95 63
0 15 60 101 119 169 126 146 345 304 566 408 69 32 125 62 125 66 0 16 -76 20
-160 9 -161 -21 -342 -82 -537 -182 -63 -33 -117 -58 -120 -56 -13 14 108 597
163 782 222 753 749 1418 1519 1917 233 150 256 164 238 136z m7055 -95 c461
-350 782 -733 1035 -1239 177 -354 320 -773 391 -1150 14 -71 32 -163 41 -204
37 -164 -6 -486 -107 -815 -134 -434 -326 -783 -614 -1115 -274 -316 -494
-497 -960 -790 -106 -66 -150 -113 -123 -132 20 -13 163 -1 253 22 98 25 217
78 329 148 48 30 90 52 93 50 8 -8 -63 -243 -110 -361 -78 -201 -175 -379
-380 -696 -91 -143 -102 -171 -62 -171 100 0 500 453 709 803 85 144 203 390
223 467 17 67 14 162 -7 217 -9 24 -5 30 63 92 40 36 124 116 187 179 62 62
116 110 119 107 11 -11 5 -456 -7 -565 -49 -428 -233 -790 -635 -1250 -149
-171 -1154 -1169 -1177 -1170 -3 0 -18 44 -32 98 -158 591 -161 1138 -11 1837
44 205 101 415 213 791 146 489 245 864 341 1280 34 150 58 230 81 275 30 59
33 74 40 199 4 74 23 227 43 340 66 389 140 939 167 1240 19 217 7 608 -25
805 -33 199 -93 444 -157 639 -27 82 -49 151 -49 153 0 8 46 -22 128 -84z
m-2128 -1052 c169 -29 280 -64 415 -130 140 -69 224 -130 320 -233 247 -265
325 -719 200 -1153 -50 -172 -145 -323 -290 -464 -85 -82 -289 -230 -301 -218
-3 2 13 26 34 53 145 184 253 413 296 624 36 178 29 397 -16 519 -21 56 -80
131 -104 131 -8 0 -21 -29 -34 -72 -116 -404 -329 -868 -520 -1133 -87 -121
-248 -265 -296 -265 -7 0 14 43 48 96 174 277 302 630 353 974 39 267 43 705
6 705 -10 0 -21 -36 -38 -130 -85 -467 -269 -879 -549 -1231 -42 -53 -78 -93
-81 -91 -2 3 11 45 30 94 103 263 189 570 236 843 26 155 35 240 24 240 -4 0
-46 -75 -93 -167 -179 -351 -413 -716 -548 -852 -45 -46 -85 -81 -88 -78 -3 3
16 46 41 97 68 136 130 290 205 515 80 238 84 255 69 255 -6 0 -70 -61 -142
-136 -156 -162 -426 -388 -443 -371 -3 2 10 29 29 58 143 226 276 562 351 887
20 86 3 83 -71 -15 -91 -122 -243 -302 -340 -403 l-88 -92 -68 66 c-47 45 -66
70 -60 78 4 8 41 58 81 112 85 113 232 333 232 347 0 21 -35 3 -225 -111 -383
-232 -526 -334 -686 -487 -329 -316 -563 -707 -744 -1246 -35 -104 -67 -192
-70 -195 -6 -7 -10 158 -7 313 15 633 310 1221 823 1637 299 243 722 458 1108
564 154 42 306 72 431 84 149 14 437 5 570 -19z m-11685 -388 c4 -71 8 -162 9
-203 l1 -74 -66 -36 c-122 -68 -216 -140 -326 -253 -244 -251 -476 -564 -681
-922 -213 -371 -299 -608 -246 -683 24 -34 55 -28 95 21 51 60 118 93 275 132
366 92 716 125 912 86 94 -18 222 -65 222 -80 0 -4 -48 -15 -107 -25 -418 -70
-882 -298 -1295 -635 -105 -86 -94 -90 85 -31 264 88 475 129 704 137 233 8
290 -1 733 -121 109 -29 121 -34 90 -39 -19 -3 -98 -15 -175 -27 -445 -67
-904 -224 -1390 -473 -223 -115 -354 -195 -460 -280 -67 -55 -91 -80 -93 -100
-2 -15 1 -27 6 -27 5 0 42 14 83 31 552 227 1264 361 1760 329 174 -11 361
-38 494 -71 117 -29 285 -81 285 -88 0 -3 -75 -6 -168 -7 -560 -3 -1280 -156
-1882 -400 -400 -161 -604 -271 -832 -447 -72 -55 -138 -133 -138 -164 0 -18
1 -18 83 23 282 143 881 315 1327 383 739 112 1360 70 2230 -150 317 -80 381
-99 355 -110 -45 -18 -213 -9 -765 41 -148 13 -439 13 -611 0 -320 -25 -704
-83 -833 -125 -95 -31 -226 -90 -226 -102 0 -5 78 -10 173 -10 193 -2 391 -22
577 -59 147 -29 348 -83 356 -95 2 -5 -16 -28 -41 -53 -38 -35 -46 -50 -43
-73 3 -27 5 -28 81 -35 64 -6 100 -17 215 -68 75 -33 222 -106 325 -161 534
-285 981 -592 1422 -977 135 -118 419 -391 413 -397 -1 -2 -48 -11 -103 -20
-438 -74 -1066 -446 -1520 -900 -430 -431 -698 -892 -845 -1452 -6 -25 -17
-43 -25 -43 -18 0 -188 133 -285 222 -136 125 -285 302 -418 493 -55 78 -60
47 -17 -102 68 -234 163 -467 281 -693 114 -217 203 -339 326 -445 l34 -30 -7
-85 c-4 -47 -8 -133 -8 -192 -1 -59 -5 -109 -10 -112 -23 -15 -356 315 -532
526 -363 436 -660 916 -1031 1668 -403 816 -463 937 -564 1120 -316 578 -510
868 -805 1204 -106 121 -339 353 -417 416 -23 18 -42 38 -42 43 0 5 31 42 69
82 174 184 418 497 585 752 205 313 419 731 551 1078 15 39 78 216 140 395
152 438 184 523 271 743 315 792 634 1237 1264 1763 74 62 142 113 151 114 15
0 18 -18 24 -127z m13058 -1033 c98 -245 240 -646 234 -663 -4 -14 -234 234
-246 266 -15 39 -43 34 -79 -16 -62 -87 -187 -233 -256 -301 -183 -177 -557
-392 -866 -498 -210 -71 -345 -95 -615 -109 -115 -5 -214 -15 -220 -20 -37
-38 221 -95 475 -106 300 -12 643 50 905 164 125 54 199 99 298 181 91 75 98
66 36 -47 -83 -150 -265 -304 -479 -405 -281 -133 -621 -196 -988 -183 -148 5
-163 4 -160 -11 12 -62 520 -100 799 -59 192 28 445 96 628 169 40 16 75 27
78 25 2 -3 -18 -22 -44 -44 -170 -142 -399 -251 -678 -323 -175 -45 -305 -62
-517 -67 -164 -5 -208 -9 -208 -19 0 -15 33 -25 182 -53 174 -33 326 -44 538
-38 242 7 393 30 624 93 48 14 91 22 94 19 8 -8 -101 -117 -168 -169 -247
-191 -592 -285 -1064 -290 -255 -3 -272 -20 -61 -65 302 -65 640 -72 943 -20
63 10 117 17 119 15 6 -6 -110 -108 -162 -141 -192 -123 -444 -171 -759 -145
-159 13 -231 11 -231 -5 0 -27 308 -114 480 -135 50 -6 171 -11 269 -11 120 0
176 -3 169 -10 -22 -22 -241 -102 -366 -134 -113 -28 -298 -58 -427 -67 -27
-2 -35 -7 -35 -23 0 -25 36 -34 242 -65 194 -30 569 -38 753 -17 179 20 184
15 82 -83 -155 -149 -343 -193 -672 -159 -116 11 -141 3 -88 -29 51 -30 244
-98 376 -132 88 -22 347 -73 410 -80 1 0 2 -25 2 -55 l0 -55 -62 1 c-35 0
-130 8 -213 18 -93 11 -154 14 -160 9 -18 -17 184 -175 373 -291 46 -28 87
-58 92 -67 9 -17 90 -331 90 -348 0 -5 -96 86 -213 202 -578 574 -1135 956
-2437 1668 -290 158 -317 173 -592 320 -103 55 -191 105 -197 112 -22 27 61
453 144 740 118 409 240 674 424 925 81 108 288 341 306 341 6 0 24 -33 39
-72 214 -556 538 -800 1096 -825 236 -10 496 28 700 104 354 132 697 387 872
649 126 188 192 347 268 643 7 26 15 40 21 34 5 -5 51 -114 102 -243z m16492
92 l40 -8 -85 -31 c-870 -318 -1690 -790 -2563 -1475 -459 -359 -1167 -969
-1694 -1460 -105 -98 -194 -178 -198 -178 -9 0 4 184 16 230 6 24 19 42 40 54
69 41 188 169 342 370 268 350 638 804 829 1017 66 74 80 99 57 99 -23 0 -391
-272 -649 -479 -168 -135 -359 -298 -510 -434 l-95 -86 -6 92 c-9 125 -10 272
-3 291 7 18 285 241 539 432 723 545 1368 920 2060 1199 497 200 968 322 1373
355 70 5 145 12 167 13 80 7 301 6 340 -1z m-13978 -1122 c14 -11 36 -20 48
-20 36 0 51 -28 98 -180 67 -215 96 -370 122 -655 18 -186 43 -320 75 -391 11
-26 20 -52 20 -58 0 -20 -769 -1420 -777 -1413 -2 2 56 145 128 318 248 594
367 905 351 921 -5 5 -15 1 -24 -9 -17 -20 -286 -470 -388 -650 -35 -62 -65
-111 -67 -109 -2 2 15 57 36 122 22 65 51 171 65 234 29 133 35 150 108 325
80 189 132 353 168 524 21 98 25 151 12 151 -4 0 -61 -90 -127 -199 -65 -110
-123 -197 -127 -195 -4 3 -8 13 -8 22 0 10 59 193 130 407 72 214 130 395 130
402 0 57 -124 -70 -314 -319 -44 -60 -85 -108 -90 -108 -14 0 -46 31 -46 45 0
6 20 39 45 73 151 208 301 503 390 770 6 17 13 15 42 -8z m-9551 -1467 c103
-136 227 -274 365 -408 205 -199 375 -330 709 -545 124 -80 422 -287 500 -349
14 -11 21 -23 17 -27 -10 -10 -255 50 -422 103 -183 59 -337 119 -482 188 -84
40 -120 52 -127 44 -14 -14 44 -67 204 -188 139 -104 255 -178 556 -351 256
-148 391 -233 377 -237 -19 -7 -517 181 -865 326 -214 89 -225 83 -85 -41 203
-181 590 -423 1136 -713 113 -60 200 -110 194 -112 -13 -5 -179 56 -768 280
-432 164 -500 186 -616 202 -52 7 -75 -10 -64 -44 7 -24 201 -167 415 -307 83
-54 145 -100 136 -102 -38 -8 -612 129 -876 209 -74 22 -136 42 -138 44 -2 2
-6 44 -8 94 -3 57 -16 134 -34 204 -77 289 -90 342 -119 482 -40 200 -59 335
-76 545 -21 257 -18 780 5 780 4 0 34 -35 66 -77z m20869 -643 c262 -23 685
-121 693 -162 4 -23 -86 -198 -156 -303 -33 -50 -92 -125 -132 -168 -80 -88
-94 -116 -85 -166 9 -49 32 -79 79 -103 38 -20 64 -22 351 -29 329 -8 516 -25
735 -65 411 -76 784 -193 1174 -370 143 -65 760 -390 790 -417 21 -18 20 -18
-34 -13 -30 3 -149 13 -265 22 -115 8 -232 21 -260 29 -27 7 -187 61 -355 120
-510 179 -959 331 -1075 364 -268 75 -487 100 -583 67 -22 -8 -107 -60 -189
-115 -186 -126 -363 -232 -375 -225 -19 12 94 188 208 324 41 48 74 94 74 100
0 19 -62 6 -134 -28 -63 -30 -377 -251 -662 -467 -91 -69 -168 -125 -171 -125
-11 0 122 166 257 320 123 140 132 163 86 230 -40 60 -49 104 -44 214 8 162
80 337 200 487 26 32 48 61 48 63 0 7 -138 -34 -316 -95 -394 -134 -795 -326
-1148 -549 -98 -62 -116 -69 -116 -47 0 21 259 267 380 361 126 97 369 260
523 350 53 31 97 60 97 63 0 9 -106 -7 -285 -42 -407 -82 -835 -239 -1181
-435 -117 -66 -144 -78 -144 -64 0 3 9 36 20 72 10 37 24 86 30 109 9 38 25
54 142 149 72 58 153 120 180 136 66 41 354 174 498 231 371 146 773 208 1145
177z m-25155 -600 c500 -26 872 -99 1385 -273 213 -73 296 -107 725 -297 643
-286 1261 -556 1404 -615 1042 -426 2133 -657 3331 -705 143 -6 631 -15 1085
-20 948 -11 1135 -21 1765 -91 659 -73 1368 -190 1813 -300 239 -59 595 -180
578 -196 -3 -3 -57 -13 -119 -20 -172 -21 -348 -59 -495 -108 -214 -71 -336
-137 -739 -393 -664 -422 -968 -555 -1418 -617 -139 -19 -368 -30 -389 -18
-14 8 5 29 120 136 l138 127 115 44 c64 25 179 68 256 96 77 29 212 87 300
130 170 83 385 206 385 220 0 23 -49 18 -152 -14 -62 -20 -156 -45 -208 -56
-111 -23 -307 -46 -316 -37 -4 3 6 21 20 38 55 65 116 215 116 284 0 79 -81
115 -199 91 -97 -20 -159 -55 -294 -163 -415 -333 -810 -600 -1102 -743 -376
-185 -763 -298 -1215 -355 -173 -22 -569 -31 -755 -16 -530 42 -1113 181
-1655 396 -752 298 -1399 710 -2290 1459 -153 128 -387 332 -892 777 -372 327
-545 464 -821 648 -277 185 -652 389 -933 509 -66 28 -133 57 -150 64 -28 12
-26 13 46 18 127 11 356 10 560 0z m18854 -655 c142 -19 313 -62 437 -111 113
-44 209 -91 209 -102 0 -5 -49 -23 -110 -41 -244 -74 -425 -185 -616 -375
-220 -221 -347 -406 -686 -1006 -461 -813 -675 -1154 -992 -1580 -340 -456
-756 -860 -1171 -1137 -422 -281 -808 -432 -1430 -558 -472 -95 -810 -109
-1255 -49 -272 36 -439 78 -970 244 -316 98 -334 103 -437 120 -164 27 -208
-46 -110 -183 87 -121 243 -247 389 -315 32 -15 56 -31 55 -37 -2 -5 -64 -24
-138 -42 -320 -77 -778 -135 -1276 -164 -194 -11 -230 -17 -204 -33 11 -7 434
-50 698 -71 277 -22 707 -33 933 -24 296 12 436 33 561 84 35 14 71 25 82 25
10 0 82 -17 160 -39 78 -21 216 -55 307 -76 91 -20 169 -41 174 -45 5 -5 -15
-20 -44 -35 -29 -15 -152 -83 -274 -153 -436 -248 -657 -335 -1001 -392 -250
-42 -475 -38 -855 16 -349 50 -535 95 -1132 275 -752 226 -1288 346 -2026 454
-1141 166 -2577 221 -3522 135 -763 -70 -1372 -235 -1818 -491 -232 -133 -390
-256 -585 -453 -76 -76 -139 -137 -142 -135 -14 14 -27 203 -22 324 10 259 79
498 231 796 322 633 864 1198 1416 1478 192 98 612 255 680 254 24 0 457 -167
473 -182 4 -4 -39 -27 -95 -52 -220 -95 -502 -266 -708 -429 -282 -223 -640
-652 -640 -766 0 -37 26 -30 115 32 416 290 842 537 1176 682 348 151 844 292
1027 292 79 0 190 -16 205 -30 5 -4 -92 -59 -215 -122 -263 -136 -481 -257
-746 -416 -175 -104 -214 -133 -200 -148 8 -7 405 115 768 236 748 249 1106
350 1582 449 337 69 482 92 536 82 345 -66 1080 -103 1624 -83 1604 59 2928
404 4146 1079 463 256 1082 651 1495 955 92 68 283 208 425 313 544 401 1081
777 1282 897 627 377 1248 610 1760 661 99 10 370 5 474 -8z m-23929 -660
c226 -16 362 -28 732 -66 202 -20 217 -20 285 -5 39 9 75 13 79 9 14 -15 149
-242 149 -251 0 -11 -73 -15 -685 -37 -658 -24 -778 -33 -1105 -77 -169 -22
-200 -30 -200 -51 0 -12 70 -15 398 -20 781 -12 1307 -66 1576 -162 70 -24
150 -47 177 -51 l51 -7 29 -64 c16 -36 29 -67 29 -70 0 -3 -15 -2 -32 1 -189
35 -1177 113 -1748 137 -301 13 -936 7 -1185 -11 -717 -51 -1499 -201 -2065
-395 -292 -101 -606 -239 -890 -393 -58 -31 -109 -59 -115 -61 -32 -12 248
247 410 380 778 635 1717 1055 2615 1168 138 18 342 35 530 45 139 8 756 -5
965 -19z m33225 -49 c276 -27 742 -95 758 -111 3 -3 -174 -5 -394 -5 -1306 0
-2497 -101 -3609 -305 -663 -122 -1479 -318 -1718 -413 -48 -19 -90 -33 -92
-30 -8 8 11 268 21 277 11 10 411 119 720 195 914 226 1800 357 2744 406 280
14 1378 4 1570 -14z m195 -256 c347 -21 627 -56 945 -121 199 -40 298 -63 308
-73 31 -32 -326 -368 -613 -575 -488 -353 -994 -573 -1572 -685 -126 -25 -212
-34 -498 -55 -194 -15 -320 -68 -382 -163 -24 -36 -28 -52 -28 -112 1 -66 5
-79 56 -181 31 -60 82 -153 114 -205 168 -274 202 -331 236 -405 42 -91 79
-205 79 -242 0 -34 -39 -67 -142 -118 -233 -117 -577 -185 -854 -171 -393 20
-774 161 -1105 407 -137 102 -199 131 -287 132 -81 1 -142 -23 -195 -77 -61
-61 -82 -110 -82 -196 0 -70 4 -83 52 -185 29 -60 59 -144 68 -185 19 -87 38
-341 27 -352 -4 -4 -57 27 -117 68 -153 105 -348 220 -512 302 -362 181 -810
323 -1065 339 -67 4 -101 10 -105 19 -2 7 18 111 45 231 28 120 86 373 128
562 l78 343 42 -6 c61 -8 317 -89 457 -145 253 -100 588 -260 834 -397 72 -41
138 -74 146 -74 8 0 20 6 27 14 9 12 -3 26 -69 79 -45 35 -111 84 -149 109
-59 41 -829 521 -1100 688 -57 35 -106 70 -110 78 -4 12 64 522 71 529 6 6
816 274 959 318 97 30 297 84 445 120 147 37 275 68 284 71 12 3 24 -11 43
-50 l27 -55 200 -102 c399 -202 707 -406 1156 -765 105 -85 194 -154 197 -154
3 0 6 9 6 20 0 27 -429 457 -585 587 -270 224 -528 405 -719 504 -79 41 -104
58 -90 62 37 11 382 77 559 106 594 99 1139 152 1775 175 165 6 838 -3 1015
-14z m-5821 -118 c76 -334 65 -930 -29 -1517 -13 -83 -56 -314 -95 -514 -254
-1304 -280 -1472 -280 -1856 0 -362 49 -630 166 -901 20 -47 34 -87 32 -90 -3
-2 -67 -14 -143 -25 -1142 -167 -2319 -711 -3452 -1596 -558 -435 -888 -738
-1923 -1768 -697 -693 -853 -841 -1115 -1061 -806 -674 -1375 -1003 -2105
-1218 -464 -136 -870 -203 -1376 -227 -459 -22 -835 16 -1225 121 -272 74
-999 339 -999 364 0 14 248 186 269 186 7 0 59 -29 114 -64 168 -105 284 -154
468 -200 256 -63 676 -80 954 -37 279 42 585 145 585 196 0 12 -18 15 -107 15
-398 0 -799 105 -1200 315 -140 73 -323 191 -323 209 0 6 20 31 44 55 44 43
46 44 68 27 162 -118 312 -189 488 -230 49 -12 62 -12 77 -1 17 13 11 20 -67
93 -68 63 -98 101 -149 188 -35 60 -81 136 -102 170 -22 33 -39 64 -39 68 0 4
27 47 59 94 131 193 263 437 364 673 57 134 72 182 106 348 l27 134 150 32
c563 122 1097 309 1629 571 559 276 905 522 1320 938 434 436 757 893 1022
1446 52 107 104 215 116 240 25 51 61 78 210 154 78 41 130 60 222 81 66 15
199 47 295 70 202 50 318 71 445 80 160 12 568 -26 875 -80 274 -49 279 -50
293 -36 23 24 -86 100 -329 229 -230 121 -493 237 -751 332 -35 12 -63 26 -63
30 0 21 329 44 524 36 262 -10 493 -52 724 -130 262 -89 439 -183 826 -438 66
-43 126 -76 134 -73 41 15 -284 320 -525 493 -117 84 -272 183 -398 256 l-80
46 72 0 c164 0 547 -63 783 -130 299 -85 620 -223 807 -347 90 -60 117 -64
121 -18 2 25 -19 59 -114 190 -352 482 -670 820 -978 1040 -37 26 -65 49 -63
51 12 12 387 -121 577 -203 521 -226 1021 -570 1507 -1035 50 -48 96 -88 101
-88 16 0 42 30 42 48 0 22 -163 293 -292 486 -171 256 -340 476 -530 694 -55
61 -96 112 -93 112 23 0 323 -222 501 -371 282 -236 528 -479 784 -774 287
-333 380 -432 420 -450 22 -10 43 -15 47 -12 20 21 -183 1248 -262 1583 -78
332 -252 747 -423 1012 -8 12 -10 22 -5 22 5 0 65 -42 134 -94 156 -117 320
-272 401 -380 60 -79 67 -93 102 -188 14 -38 22 -48 41 -48 34 0 42 17 49 105
17 203 40 412 76 670 21 154 44 341 49 414 20 254 11 575 -24 851 -21 163 -20
179 18 221 135 153 243 288 331 412 26 37 54 67 61 67 8 0 19 -26 29 -68z
m-10844 -61 c0 -13 -29 -35 -37 -28 -7 8 15 37 28 37 5 0 9 -4 9 -9z m-10076
-230 l109 -109 -44 -28 c-299 -189 -445 -302 -664 -515 -448 -436 -797 -935
-1048 -1499 -126 -282 -193 -513 -237 -810 -18 -120 -24 -538 -11 -705 11
-133 53 -434 67 -477 8 -28 43 -43 59 -26 8 7 30 85 50 173 160 692 396 1150
796 1541 158 153 341 295 503 389 59 34 54 25 -34 -75 -282 -318 -539 -730
-739 -1184 -246 -556 -479 -1355 -600 -2056 -17 -96 -60 -371 -96 -610 -36
-239 -67 -451 -70 -470 -4 -23 24 22 83 135 150 289 311 532 424 641 133 129
207 170 216 122 3 -17 -80 -162 -179 -310 -198 -294 -343 -592 -432 -889 -38
-122 -87 -333 -87 -368 l0 -21 39 20 c33 16 347 346 474 497 51 60 318 292
452 393 200 150 347 241 575 355 155 78 423 189 441 183 6 -2 -49 -49 -123
-105 -175 -133 -370 -296 -474 -397 -67 -65 -104 -113 -187 -247 -57 -91 -140
-217 -184 -280 -118 -170 -323 -499 -323 -521 0 -4 12 -8 27 -8 21 0 68 41
227 198 454 448 885 751 1481 1043 616 301 1268 502 1957 603 302 45 857 78
903 53 24 -12 165 -166 165 -179 0 -11 -33 -16 -150 -23 -251 -14 -704 -74
-985 -130 -354 -71 -796 -199 -1100 -320 -158 -63 -501 -229 -632 -307 -96
-57 -203 -151 -203 -178 0 -6 11 -16 25 -22 21 -9 59 0 262 65 677 217 1264
344 1858 402 167 17 584 32 574 21 -3 -3 -70 -30 -150 -60 -275 -104 -512
-208 -772 -337 -351 -176 -457 -244 -417 -269 15 -9 19 -8 150 50 432 192 897
321 1352 377 246 30 705 23 916 -14 23 -4 74 -39 160 -111 824 -684 1740
-1126 2782 -1346 91 -19 212 -42 270 -51 58 -10 106 -19 108 -20 2 -2 -24 -40
-57 -84 -74 -100 -158 -249 -201 -357 -34 -84 -34 -114 -2 -114 26 0 214 114
294 177 84 68 205 195 257 271 38 57 45 62 77 62 69 0 329 -23 336 -29 19 -17
-283 -445 -475 -676 -147 -176 -456 -480 -544 -535 -40 -25 -71 -49 -69 -55 5
-17 85 -17 170 0 179 36 533 241 849 492 175 139 402 360 538 523 61 73 159
215 159 230 0 16 39 22 210 36 238 18 240 18 240 -6 0 -63 -146 -356 -269
-542 -217 -326 -487 -579 -960 -896 -840 -566 -1845 -939 -2966 -1101 -469
-68 -731 -85 -1198 -78 -549 8 -921 56 -1432 182 -628 155 -1260 419 -1841
771 -333 201 -725 449 -1484 939 -465 301 -763 470 -1184 675 -221 108 -560
259 -763 339 -46 18 -83 39 -83 46 0 7 31 77 69 156 243 507 427 1170 495
1789 46 416 45 754 -5 1455 -29 403 -33 497 -33 900 -1 372 2 478 17 610 81
713 326 1222 832 1731 180 181 325 309 518 458 144 111 796 554 817 555 9 1
64 -48 124 -108z m-4927 -687 c34 -82 62 -157 62 -167 1 -15 -5 -16 -56 -10
-115 15 -618 8 -778 -11 -360 -43 -632 -109 -898 -220 -106 -44 -263 -122
-271 -134 -3 -5 43 -12 102 -16 232 -15 407 -52 753 -159 227 -71 304 -109
237 -119 -13 -2 -135 11 -273 28 -137 18 -316 37 -396 43 -242 18 -548 10
-556 -15 -10 -30 683 -544 1190 -883 77 -51 137 -94 135 -97 -2 -2 -69 15
-149 37 -378 105 -668 188 -925 265 -318 95 -354 100 -444 58 -30 -14 -120
-43 -200 -64 -317 -85 -656 -208 -883 -320 -227 -113 -465 -290 -682 -507
-118 -117 -301 -330 -292 -339 3 -3 54 13 114 35 286 107 602 180 907 210 151
15 186 14 186 -4 0 -21 -15 -27 -235 -90 -564 -161 -763 -246 -998 -424 -136
-103 -212 -174 -205 -193 5 -12 37 -16 175 -21 324 -13 998 -47 1032 -53 18
-3 31 -7 29 -9 -2 -3 -143 -23 -314 -45 -433 -55 -451 -60 -510 -129 -210
-243 -496 -636 -669 -916 -96 -155 -187 -316 -182 -322 3 -2 85 42 183 98 219
124 347 189 374 189 32 0 24 -32 -17 -71 -21 -20 -87 -75 -148 -124 -187 -151
-313 -266 -495 -452 -166 -168 -177 -182 -209 -258 -203 -486 -276 -672 -391
-1000 -42 -121 -91 -247 -107 -280 -23 -44 -215 -326 -249 -364 -14 -15 -10
29 16 205 63 431 153 805 295 1230 205 612 431 1078 697 1431 91 122 273 311
394 409 53 43 99 89 108 109 33 69 12 148 -54 197 -14 10 -90 41 -170 69 -80
27 -149 54 -154 60 -12 11 8 53 92 194 214 358 491 723 731 964 219 219 413
362 662 486 312 154 574 209 974 204 201 -3 212 -2 257 20 76 36 113 119 89
194 -7 20 -40 78 -73 129 -64 96 -198 349 -198 373 0 16 328 215 515 311 314
162 654 276 1000 333 162 26 181 28 405 46 107 9 238 22 290 29 52 7 100 12
105 11 6 -1 38 -69 72 -151z m988 -2162 c73 -120 265 -401 324 -475 39 -48 71
-91 71 -96 0 -4 -87 -25 -192 -46 -254 -50 -694 -159 -943 -234 -687 -206
-1194 -410 -1870 -751 -1185 -598 -2129 -1210 -2943 -1910 -284 -243 -780
-723 -1110 -1073 -56 -60 -102 -104 -102 -98 0 39 468 649 715 931 1119 1277
2602 2460 3860 3080 541 266 1002 430 1650 585 132 32 296 72 365 90 69 18
132 32 140 31 8 0 24 -16 35 -34z m25450 -312 c363 -35 808 -205 1130 -432
147 -104 375 -339 375 -388 0 -25 -72 -133 -150 -225 -119 -140 -263 -250
-457 -349 -172 -88 -243 -179 -243 -311 0 -83 26 -143 89 -205 73 -72 125 -90
266 -90 397 0 707 -169 1081 -588 219 -245 393 -525 518 -832 62 -154 142
-418 129 -431 -12 -12 -192 -57 -323 -81 -93 -17 -162 -21 -362 -23 l-247 -3
-65 -30 c-53 -25 -72 -40 -96 -78 -42 -67 -53 -108 -47 -172 8 -73 44 -141
124 -232 386 -442 679 -1063 847 -1796 85 -370 127 -678 147 -1078 10 -213 3
-632 -12 -641 -10 -7 -175 271 -200 335 -10 27 -35 130 -54 227 -117 582 -224
901 -620 1833 -64 151 -121 288 -127 303 -6 17 -45 53 -102 96 -50 37 -212
177 -361 311 -148 134 -289 259 -312 279 -46 38 -59 81 -25 81 62 0 299 -105
470 -209 57 -34 106 -60 109 -58 8 9 -251 639 -273 662 -37 40 -82 45 -421 45
-178 0 -323 4 -323 8 0 5 75 38 168 75 530 208 926 306 1356 333 103 6 108 7
87 23 -41 31 -347 186 -576 292 -160 74 -231 112 -234 124 -3 16 3 17 45 12
157 -18 726 -164 924 -237 46 -16 85 -28 87 -26 3 2 -96 138 -218 302 -244
327 -305 394 -508 556 -160 128 -126 120 -555 117 -308 -2 -346 1 -346 36 0
38 196 103 538 180 12 3 22 9 22 14 0 19 -77 34 -165 33 -102 -1 -752 -65
-1199 -118 -164 -19 -305 -34 -312 -32 -18 4 925 932 1066 1049 63 53 153 124
200 159 105 78 119 95 120 142 0 35 -3 38 -37 48 -277 76 -425 113 -510 130
-141 27 -438 66 -615 81 -134 11 -148 15 -148 31 0 23 82 62 174 83 86 20 276
35 444 35 80 0 142 4 142 9 0 12 -181 82 -311 121 -179 53 -433 94 -639 103
l-55 2 4 127 c2 69 6 152 10 185 l6 58 185 16 c237 21 253 21 385 9z m-24788
-723 c-2 -7 -30 -48 -62 -92 -131 -183 -389 -640 -523 -930 -87 -186 -252
-566 -252 -579 0 -23 31 19 168 224 160 242 459 645 592 800 45 52 150 169
234 259 83 90 153 167 154 172 2 5 9 9 16 9 9 0 18 -49 30 -162 9 -90 26 -246
36 -348 33 -311 40 -433 40 -699 0 -360 -27 -632 -91 -936 -41 -195 -54 -237
-86 -267 -52 -50 -497 -248 -556 -248 -17 0 -18 7 -10 133 4 72 8 179 8 237 0
97 -2 110 -30 165 -24 47 -41 66 -79 90 -58 35 -130 40 -186 11 -19 -10 -96
-80 -170 -156 -505 -516 -1440 -923 -2399 -1044 -243 -31 -534 -47 -551 -30
-19 19 89 384 202 679 53 139 62 207 39 278 -16 48 -89 112 -145 126 -93 23
-158 -9 -285 -141 -230 -240 -664 -559 -1106 -813 -499 -287 -1283 -591 -1917
-745 -259 -62 -694 -140 -726 -129 -11 4 149 202 305 378 96 109 483 519 525
556 18 16 88 83 158 149 777 746 1688 1382 2731 1906 390 196 888 425 909 418
5 -2 -20 -48 -57 -102 -247 -372 -436 -744 -549 -1082 -66 -196 -56 -195 84
14 54 81 147 228 207 327 212 353 363 569 578 825 165 197 152 187 387 270
801 281 1692 468 2324 488 43 2 57 -1 53 -11z m17130 -129 c-73 -162 -105
-285 -93 -359 8 -50 -4 -78 -106 -248 -190 -317 -379 -561 -637 -825 -307
-313 -651 -577 -1102 -849 -1351 -813 -2988 -1092 -4554 -776 -753 151 -1324
389 -2020 838 -436 282 -809 562 -1279 960 -121 102 -397 336 -615 518 -218
183 -397 337 -399 342 -4 11 133 21 318 24 l135 2 40 -30 c151 -113 461 -358
584 -460 407 -339 597 -475 944 -673 782 -448 1570 -729 2322 -828 136 -17
309 -23 322 -10 20 20 -71 61 -247 111 -143 40 -392 118 -505 158 -444 156
-919 394 -1401 703 -244 157 -249 165 -54 88 303 -121 995 -344 1390 -449 348
-92 832 -196 913 -195 l32 1 -29 24 c-18 14 -132 58 -285 110 -515 175 -834
316 -1301 578 -196 109 -461 272 -451 275 5 2 54 -10 108 -26 183 -56 657
-203 988 -307 490 -155 698 -208 1040 -265 225 -38 368 -52 495 -48 86 2 105
6 108 19 4 23 -99 70 -253 114 -497 144 -784 268 -1305 566 -146 83 -357 200
-470 260 -113 60 -198 109 -190 109 9 0 94 -13 191 -30 567 -95 1109 -232
1649 -415 140 -48 327 -111 416 -140 515 -171 1032 -270 1484 -284 l205 -6
-145 -48 c-335 -111 -817 -240 -1130 -302 -137 -27 -168 -41 -157 -69 6 -14
33 -16 199 -16 515 0 1379 163 1978 373 375 132 819 341 1165 549 79 47 113
55 64 15 -14 -12 -91 -76 -170 -143 -324 -271 -614 -466 -1028 -688 -504 -272
-1002 -472 -1626 -652 -167 -49 -521 -141 -612 -159 -34 -7 -45 -31 -19 -41 8
-3 77 2 153 11 1188 141 2408 523 3273 1025 567 329 1064 751 1378 1170 81
107 131 204 157 303 20 75 25 81 75 95 49 14 63 14 57 0z m-1507 -196 c0 -5
-11 -19 -25 -32 -28 -26 -33 -16 -9 18 15 22 34 30 34 14z m6958 -1503 c238
-94 391 -198 817 -558 1093 -924 1771 -1577 2231 -2146 454 -564 823 -1133
1171 -1801 47 -91 84 -167 82 -169 -2 -2 -72 78 -154 178 -460 555 -981 1144
-1495 1687 -272 288 -919 938 -1120 1125 -604 562 -1183 1004 -1755 1340 -147
86 -245 164 -245 195 0 10 61 46 173 102 190 95 176 93 295 47z m-683 -347
c37 -26 41 -33 47 -87 66 -525 74 -673 59 -1050 -18 -439 -37 -662 -121 -1385
-40 -352 -53 -517 -40 -525 15 -9 38 6 49 33 20 52 114 570 175 967 85 551
146 1149 172 1688 4 75 8 137 10 137 16 0 402 -258 616 -411 422 -302 880
-680 1210 -998 l97 -93 -6 -97 c-4 -69 -1 -121 11 -184 50 -262 44 -883 -15
-1507 -34 -368 -34 -360 -16 -360 18 0 30 48 77 313 55 310 113 731 175 1277
32 286 34 300 48 300 25 0 896 -885 1253 -1275 774 -844 1209 -1403 1504
-1933 53 -96 60 -116 49 -127 -37 -35 -401 -75 -685 -75 -704 0 -1337 160
-1909 484 -108 62 -222 137 -430 287 -58 41 -80 51 -126 56 -52 5 -58 3 -90
-25 l-34 -30 -7 -269 c-6 -278 -17 -370 -64 -581 -32 -145 -112 -392 -127
-392 -6 0 -67 30 -136 66 -933 491 -1502 1130 -1826 2051 -48 137 -99 177
-174 137 -32 -17 -40 -30 -72 -119 -50 -139 -110 -273 -176 -390 -59 -105
-184 -295 -207 -314 -26 -22 -368 354 -583 641 -411 550 -673 1149 -817 1868
-43 219 -51 287 -36 312 14 25 340 338 510 489 479 428 900 753 1365 1051 189
122 194 123 270 70z m-2700 -2329 c244 -639 478 -1276 530 -1448 66 -217 116
-445 175 -800 73 -436 84 -486 106 -502 10 -7 21 -10 25 -6 17 19 -29 706 -71
1037 -10 88 -18 161 -16 163 5 5 131 -214 155 -268 24 -56 106 -550 141 -856
52 -454 20 -1330 -76 -2078 -27 -214 -88 -583 -128 -780 l-24 -120 -1 375 c-4
1397 -186 2611 -539 3590 -202 560 -393 949 -634 1288 l-81 114 84 86 c47 48
132 135 189 195 57 59 109 107 116 107 6 0 28 -44 49 -97z m-7972 -1930 c44
-60 203 -215 282 -275 317 -240 781 -421 1340 -523 77 -14 142 -29 146 -33 3
-4 11 -34 18 -67 7 -33 35 -127 61 -210 99 -302 143 -529 160 -812 23 -386
-38 -775 -174 -1109 -17 -42 -30 -60 -45 -62 -13 -2 -144 80 -385 241 -201
135 -382 251 -403 258 -21 7 -63 13 -93 13 -158 1 -254 -92 -253 -244 0 -84
29 -145 124 -265 101 -128 114 -150 159 -282 122 -352 155 -617 155 -1223 0
-413 -22 -732 -52 -779 l-15 -24 -242 7 c-132 4 -288 11 -346 16 -58 5 -234
13 -392 16 l-286 7 -56 -27 c-67 -33 -109 -88 -131 -172 -22 -84 -19 -127 20
-297 72 -319 103 -561 112 -862 19 -690 -120 -1413 -394 -2045 -103 -238 -297
-604 -466 -880 -38 -63 -79 -130 -90 -147 -10 -18 -24 -33 -31 -33 -21 0 -300
710 -428 1090 -503 1491 -685 2950 -558 4470 17 203 60 593 68 619 7 21 21 4
125 -153 287 -433 566 -774 961 -1174 224 -226 260 -255 273 -216 2 6 -31 51
-73 100 -126 147 -383 469 -510 639 -307 409 -435 612 -564 896 -46 101 -99
212 -118 247 l-34 62 27 163 c153 924 419 1716 789 2351 54 91 109 193 123
226 15 33 29 60 33 60 4 0 26 -38 49 -85 118 -238 719 -1056 1273 -1731 169
-207 175 -213 184 -190 4 10 -61 124 -184 323 -512 832 -569 928 -680 1149
-82 165 -284 641 -280 661 2 8 70 42 153 76 82 34 246 110 365 169 118 58 222
107 232 107 9 1 32 -20 51 -46z m-6037 -548 c112 -36 205 -69 208 -73 3 -4
-46 -46 -107 -92 -165 -125 -438 -355 -637 -537 -564 -516 -1260 -1323 -1140
-1323 6 0 84 69 174 154 749 703 1296 1126 1818 1409 135 74 133 65 -15 -62
-139 -119 -474 -440 -692 -662 -976 -996 -1661 -1922 -2144 -2897 -182 -369
-293 -655 -392 -1017 -45 -162 -104 -436 -125 -570 l-7 -50 -8 35 c-34 153
-50 749 -29 1031 91 1175 547 2269 1345 3222 340 407 855 917 1408 1395 65 56
123 102 129 102 6 0 102 -29 214 -65z m4284 -62 c0 -5 -13 -48 -29 -98 -251
-775 -413 -1542 -546 -2588 -100 -788 -130 -1283 -122 -2006 7 -659 44 -1067
153 -1689 20 -112 33 -206 30 -209 -5 -6 -8 5 -61 215 -249 998 -419 2040
-486 2992 -15 213 -15 723 0 910 49 607 166 1172 376 1817 63 196 189 531 204
546 6 6 113 34 238 63 259 60 243 56 243 47z m-2538 -259 l68 -6 -110 -116
c-137 -146 -241 -275 -335 -417 -80 -121 -197 -326 -190 -333 2 -3 62 51 132
118 216 207 473 407 576 445 121 46 81 -3 -420 -503 -478 -478 -480 -480 -423
-509 59 -30 148 -10 415 94 318 125 983 353 1027 353 5 0 -53 -66 -129 -147
-77 -82 -227 -242 -333 -358 -106 -115 -268 -284 -360 -375 l-168 -165 -15
-70 c-9 -38 -19 -108 -23 -155 l-7 -85 72 65 c208 186 584 459 616 446 8 -3
15 -9 15 -13 0 -4 -32 -46 -71 -93 -289 -347 -454 -616 -592 -970 -119 -303
-112 -260 -111 -680 0 -391 11 -550 60 -890 40 -277 127 -688 158 -749 8 -15
29 -34 45 -41 27 -11 35 -10 70 11 22 13 149 128 283 255 372 354 778 709 778
680 0 -18 -72 -183 -145 -331 -92 -189 -204 -380 -310 -529 -38 -54 -81 -113
-94 -132 -13 -19 -24 -47 -23 -63 1 -44 156 -441 172 -441 4 0 28 63 53 139
55 166 146 380 185 436 62 88 71 34 34 -195 -30 -194 -42 -340 -49 -630 l-6
-255 56 -112 c221 -440 570 -959 917 -1364 141 -164 334 -384 428 -487 56 -63
114 -136 128 -163 31 -62 128 -348 121 -355 -7 -7 -171 113 -392 285 -903 703
-1464 1419 -1709 2180 -72 223 -114 439 -135 684 -13 156 -56 221 -151 234
-62 9 -122 -20 -252 -118 -131 -98 -202 -143 -219 -137 -41 14 -272 694 -354
1041 -143 607 -140 1233 10 1810 54 210 112 378 229 658 86 209 106 266 106
306 0 65 -34 130 -80 154 -48 26 -107 24 -262 -11 -133 -29 -294 -53 -442 -66
l-79 -7 5 34 c4 19 27 93 53 164 182 504 456 966 836 1413 l72 84 101 -6 c56
-4 131 -9 168 -12z"/>
<path d="M19706 42542 c-17 -28 170 -235 277 -305 111 -74 197 -111 257 -111
50 -1 55 1 58 22 3 16 -14 41 -64 92 -85 88 -199 165 -355 239 -142 67 -165
75 -173 63z"/>
<path d="M20280 42422 c0 -43 57 -149 111 -205 47 -49 71 -56 77 -23 6 30 -65
161 -113 210 -52 54 -75 59 -75 18z"/>
<path d="M19765 39970 c-7 -23 14 -67 47 -96 78 -72 350 -216 370 -196 28 28
-176 207 -316 277 -79 40 -92 42 -101 15z"/>
<path d="M20457 39714 c-4 -4 -7 -20 -7 -35 0 -22 6 -30 25 -35 33 -8 57 12
53 45 -2 21 -9 27 -33 29 -17 2 -34 0 -38 -4z"/>
<path d="M32823 37050 c-24 -10 -54 -30 -68 -44 -78 -78 45 -84 128 -7 67 63
31 93 -60 51z"/>
<path d="M32970 36405 c-168 -28 -324 -84 -482 -172 -203 -113 -237 -162 -78
-113 117 36 313 69 501 85 314 26 399 37 415 52 52 53 -39 134 -167 148 -30 3
-67 8 -84 9 -16 2 -64 -2 -105 -9z"/>
<path d="M33049 36029 c-80 -9 -149 -32 -149 -49 0 -19 47 -33 132 -38 131 -7
298 25 298 57 0 28 -162 45 -281 30z"/>
<path d="M39604 38495 c-21 -32 -6 -75 26 -75 23 0 60 33 60 54 0 52 -57 65
-86 21z"/>
<path d="M38530 38423 c1 -30 23 -50 116 -103 169 -98 479 -258 549 -283 89
-31 179 -50 204 -42 70 22 4 137 -122 213 -114 69 -377 161 -609 213 -111 24
-138 25 -138 2z"/>
<path d="M39423 38393 c-7 -2 -13 -18 -13 -34 0 -36 47 -68 155 -104 75 -26
95 -26 95 -1 0 18 -95 91 -159 121 -53 26 -57 27 -78 18z"/>
<path d="M37540 36415 c0 -35 227 -199 387 -279 172 -86 416 -151 438 -117 32
53 -364 270 -704 386 -85 29 -121 32 -121 10z"/>
<path d="M38810 36260 c-11 -11 -20 -29 -20 -40 0 -25 34 -60 58 -60 24 0 49
20 57 47 4 17 -1 29 -19 48 -30 30 -49 32 -76 5z"/>
<path d="M15100 34597 c0 -22 79 -168 127 -235 155 -217 469 -527 703 -694 79
-56 209 -122 270 -138 63 -16 140 -10 154 13 20 31 -29 100 -163 229 -156 150
-282 255 -436 366 -145 104 -452 334 -553 414 -72 57 -102 70 -102 45z"/>
<path d="M15160 33689 c0 -72 339 -309 502 -351 151 -39 10 128 -226 267 -114
67 -176 94 -233 102 -40 5 -43 4 -43 -18z"/>
<path d="M15153 33254 c-7 -3 -13 -16 -13 -29 0 -26 30 -49 93 -71 51 -19 217
-31 217 -17 0 14 -207 110 -250 117 -19 3 -41 3 -47 0z"/>
<path d="M29400 36558 c-61 -48 -101 -108 -107 -162 -5 -45 -5 -46 21 -46 38
0 77 22 119 69 48 54 69 96 65 134 -4 46 -42 48 -98 5z"/>
<path d="M31850 32967 c-61 -13 -77 -37 -39 -58 27 -14 204 -7 262 11 46 14
47 42 2 51 -48 10 -165 8 -225 -4z"/>
<path d="M36562 31160 c-100 -15 -122 -21 -122 -34 0 -7 19 -20 43 -29 523
-195 648 -233 799 -244 83 -6 87 -5 112 20 35 35 33 50 -13 100 -79 85 -233
154 -405 182 -96 16 -322 18 -414 5z"/>
<path d="M36746 30761 c-16 -3 -34 -14 -40 -24 -9 -15 -6 -22 14 -38 65 -54
103 -68 222 -80 127 -13 148 -10 148 21 0 15 -24 32 -110 75 -113 57 -152 64
-234 46z"/>
<path d="M35771 28396 c-22 -27 -2 -39 156 -96 327 -116 600 -231 1083 -455
310 -144 354 -162 478 -204 202 -67 261 -23 139 106 -140 148 -460 304 -967
472 -307 102 -610 174 -785 187 -78 6 -92 4 -104 -10z"/>
<path d="M36704 27716 c-12 -31 46 -88 136 -133 201 -102 462 -195 484 -173
14 14 -23 47 -139 124 -161 107 -318 177 -429 192 -37 6 -47 4 -52 -10z"/>
<path d="M19263 30555 c-96 -26 -172 -84 -234 -179 -27 -41 -39 -70 -39 -95 0
-56 10 -65 66 -56 119 17 282 97 402 196 59 49 72 65 72 89 0 46 -30 60 -130
59 -47 0 -109 -7 -137 -14z"/>
<path d="M19482 30225 c-80 -72 -142 -183 -121 -216 27 -44 190 132 199 216 7
59 -12 59 -78 0z"/>
<path d="M28130 30644 c-149 -40 -364 -181 -536 -351 -94 -93 -184 -205 -184
-229 0 -31 31 -24 87 18 124 95 289 196 508 313 297 158 347 190 343 219 -6
43 -115 57 -218 30z"/>
<path d="M27805 30136 c-135 -33 -239 -121 -305 -257 -46 -96 -53 -152 -19
-169 16 -9 26 -8 47 6 39 25 258 247 326 331 80 100 70 118 -49 89z"/>
<path d="M27570 29652 c-23 -11 -35 -24 -35 -37 0 -29 44 -31 78 -5 30 24 35
45 11 54 -20 8 -13 9 -54 -12z"/>
<path d="M12665 24520 c-10 -31 5 -90 39 -155 34 -67 211 -255 240 -255 41 0
30 71 -34 208 -48 101 -90 156 -149 194 -53 33 -87 36 -96 8z"/>
<path d="M23326 29868 c-28 -39 -19 -79 34 -160 109 -166 309 -296 442 -286
40 3 43 5 46 33 7 70 -266 326 -445 419 -43 22 -59 20 -77 -6z"/>
<path d="M23230 29560 c-40 -40 -16 -98 66 -156 52 -37 164 -77 189 -68 24 10
17 43 -20 94 -62 85 -149 150 -200 150 -8 0 -24 -9 -35 -20z"/>
<path d="M23130 29261 c0 -5 -3 -16 -6 -24 -4 -12 13 -22 76 -41 44 -14 88
-26 96 -26 32 0 6 26 -57 57 -77 38 -109 48 -109 34z"/>
<path d="M20200 25039 c-217 -143 -406 -358 -504 -570 -34 -74 -66 -200 -66
-261 0 -51 26 -136 55 -179 21 -33 31 -39 59 -39 72 0 153 136 251 421 85 249
185 445 311 612 44 57 56 97 30 97 -7 0 -68 -36 -136 -81z"/>
<path d="M20261 24389 c-48 -19 -101 -71 -127 -126 -54 -109 -43 -353 16 -353
30 0 134 170 169 277 28 82 28 166 1 193 -22 22 -25 23 -59 9z"/>
<path d="M20795 24025 c-30 -29 -32 -68 -5 -112 32 -54 95 -41 114 24 13 43
-33 113 -74 113 -6 0 -22 -11 -35 -25z"/>
<path d="M29983 23953 c-37 -7 -27 -37 20 -63 91 -51 476 -316 760 -523 476
-347 617 -437 683 -437 33 0 47 5 58 22 23 33 20 47 -30 147 -143 287 -465
535 -944 729 -250 101 -444 145 -547 125z"/>
<path d="M31288 23856 c-32 -71 158 -250 387 -363 44 -22 95 -43 113 -46 29
-6 32 -4 32 17 0 34 -50 98 -174 222 -92 92 -125 118 -195 152 -98 50 -146 55
-163 18z"/>
<path d="M29898 23009 c-10 -5 -18 -18 -18 -27 0 -31 46 -94 90 -123 77 -52
108 -32 70 46 -28 57 -81 115 -106 115 -11 0 -27 -5 -36 -11z"/>
<path d="M24672 21519 c-39 -12 -52 -37 -28 -55 59 -42 359 -83 519 -70 74 7
87 10 87 26 0 48 -479 130 -578 99z"/>
<path d="M41724 24709 c-9 -15 109 -124 216 -200 128 -91 402 -241 416 -227
11 12 -11 37 -81 93 -141 112 -499 345 -531 345 -7 0 -16 -5 -20 -11z"/>
<path d="M40786 23605 c-9 -13 -16 -29 -16 -34 0 -20 265 -161 302 -161 29 0
21 15 -33 64 -56 50 -210 156 -226 156 -6 0 -18 -11 -27 -25z"/>
<path d="M28784 16599 c-3 -6 7 -24 22 -41 67 -71 539 -441 665 -521 88 -56
214 -117 243 -117 34 0 60 39 51 79 -16 74 -151 227 -274 311 -119 80 -462
240 -610 284 -64 19 -87 20 -97 5z"/>
<path d="M30470 16530 c-43 -43 -36 -122 11 -128 52 -6 102 94 64 131 -22 23
-51 21 -75 -3z"/>
<path d="M29938 16439 c-23 -13 -23 -31 1 -77 43 -82 171 -173 213 -151 26 14
22 48 -10 100 -55 86 -162 153 -204 128z"/>
<path d="M19894 16522 c-19 -12 -163 -262 -224 -387 -109 -224 -192 -454 -211
-584 -29 -203 28 -400 133 -456 35 -18 40 -19 65 -5 35 20 70 81 82 145 6 28
20 169 31 315 11 146 29 324 39 397 20 136 77 392 110 498 23 74 14 103 -25
77z"/>
<path d="M20210 15733 c-84 -155 -105 -210 -121 -317 -19 -124 14 -255 71
-286 18 -10 26 -6 54 22 62 62 104 270 91 448 -4 47 -7 127 -7 178 -1 50 -4
92 -7 92 -3 0 -40 -62 -81 -137z"/>
<path d="M20802 15348 c-19 -19 -14 -76 8 -98 26 -26 76 -26 90 -1 15 30 12
56 -11 85 -22 28 -66 35 -87 14z"/>
<path d="M10731 19917 c-13 -23 -64 -103 -113 -177 -132 -199 -180 -310 -214
-488 -16 -87 -11 -111 20 -99 8 3 40 55 69 114 51 101 86 185 182 438 21 55
51 126 67 157 44 90 35 137 -11 55z"/>
<path d="M13317 19838 c-188 -208 -263 -327 -327 -517 -32 -94 -40 -181 -17
-181 37 0 132 116 232 284 59 100 211 426 217 466 7 50 -28 33 -105 -52z"/>
<path d="M35902 16834 c-28 -55 -46 -115 -96 -319 -84 -337 -121 -558 -150
-915 -33 -390 -33 -407 6 -362 17 18 89 269 137 472 111 471 183 1102 132
1153 -6 6 -17 -5 -29 -29z"/>
<path d="M38115 15304 c-42 -42 -49 -74 -49 -224 0 -121 5 -165 27 -261 40
-176 68 -254 91 -254 32 0 38 54 33 305 -4 241 -22 379 -53 428 -17 26 -27 28
-49 6z"/>
<path d="M25184 13166 c-10 -25 25 -128 71 -207 104 -182 228 -355 245 -344
19 12 9 50 -41 164 -71 161 -156 318 -197 363 -35 39 -68 49 -78 24z"/>
<path d="M23614 10677 c-16 -43 330 -520 506 -698 126 -127 291 -241 390 -269
33 -9 70 5 70 27 0 18 -138 155 -452 450 -109 101 -267 257 -352 346 -121 126
-156 158 -162 144z"/>
</g>
</svg>
